<svg height="300" viewBox="0 0 950 950" fill="none" xmlns="http://www.w3.org/2000/svg">
<g filter="url(#filter0_gn_7379_10535)">
<path d="M901.5 455.442C901.5 597.955 877 717.442 753 797.442C711.903 830.276 664.409 871.441 609.5 885.942C573.913 895.34 502.541 917.942 464 917.942C425.459 917.942 393.5 904.942 303 870.942C260.038 840.756 190.982 803.305 155.5 765.528C136.17 744.947 84 711.442 75.5 692.442C70.5335 681.34 68.9134 633.154 65.5 618.442C51.8529 559.622 40 503.633 40 455.442C40.0273 417.082 69.475 375.87 86.5 327.942C102.654 282.467 92.9469 278.807 110 248.442C123.963 223.58 145.663 196.159 160 185.942C246 102.785 237 74.7664 271 69.9421C343.098 59.7119 457 20.5971 518 36.942C534.198 41.2824 543.285 52.723 561.5 56.9421C581.854 61.6566 596.798 45.942 615 56.9421C684.5 98.942 778.323 150.212 818 201.634C863.144 260.141 900.689 322.356 909.5 395.942C911.764 414.853 901.5 434.982 901.5 455.442Z" fill="url(#paint0_radial_7379_10535)"/>
<path d="M901.5 455.442C901.5 597.955 877 717.442 753 797.442C711.903 830.276 664.409 871.441 609.5 885.942C573.913 895.34 502.541 917.942 464 917.942C425.459 917.942 393.5 904.942 303 870.942C260.038 840.756 190.982 803.305 155.5 765.528C136.17 744.947 84 711.442 75.5 692.442C70.5335 681.34 68.9134 633.154 65.5 618.442C51.8529 559.622 40 503.633 40 455.442C40.0273 417.082 69.475 375.87 86.5 327.942C102.654 282.467 92.9469 278.807 110 248.442C123.963 223.58 145.663 196.159 160 185.942C246 102.785 237 74.7664 271 69.9421C343.098 59.7119 457 20.5971 518 36.942C534.198 41.2824 543.285 52.723 561.5 56.9421C581.854 61.6566 596.798 45.942 615 56.9421C684.5 98.942 778.323 150.212 818 201.634C863.144 260.141 900.689 322.356 909.5 395.942C911.764 414.853 901.5 434.982 901.5 455.442Z" fill="url(#paint1_linear_7379_10535)" fill-opacity="0.2"/>
</g>
<g opacity="0.5" filter="url(#filter1_g_7379_10535)">
<path d="M464.185 38.75C483.69 37.2875 501.114 37.8562 515.339 41.418L516.706 41.7715C524.008 43.7282 529.719 47.2685 536.428 51.2793C542.839 55.1124 549.983 59.2468 559.448 61.5918L560.372 61.8135C571.937 64.492 582.099 61.3125 590.176 59.458C598.211 57.613 604.656 56.8328 611.728 60.8203L612.414 61.2217C647.314 82.3124 687.936 105.505 724.929 129.928C761.4 154.006 793.72 178.891 813.127 203.517L814.041 204.688C858.658 262.512 895.31 323.347 904.327 394.846L904.535 396.536C905.55 405.012 903.775 413.968 901.476 423.993C899.242 433.731 896.5 444.516 896.5 455.442C896.5 597.455 872.085 714.662 750.289 793.24L750.077 793.378L749.879 793.535C708.744 826.399 662.595 866.312 609.479 880.771L608.224 881.107C590.085 885.897 563.828 893.771 536.637 900.617C509.502 907.449 482.577 912.942 464 912.942C426.688 912.942 395.859 900.491 305.35 866.483C283.895 851.453 255.762 834.432 229.198 816.908C202.566 799.339 177.251 781.107 159.962 762.969L159.145 762.104C149.166 751.48 130.809 737.591 114.577 724.5C106.334 717.852 98.5541 711.353 92.3311 705.377C86.1736 699.464 82.0254 694.51 80.2305 690.76L80.0645 690.4C79.1517 688.36 78.1875 683.951 77.2715 677.556C76.3862 671.375 75.6213 663.954 74.8955 656.322C73.5177 641.834 72.2575 626.112 70.5381 618.066L70.3711 617.312C56.707 558.418 45.0005 502.975 45 455.445C45.0129 437.424 51.9582 418.386 61.4355 397.333C70.4778 377.246 81.8719 355.252 90.3955 331.882L91.2119 329.616C99.4446 306.44 101.113 293.791 102.846 283.344C104.449 273.677 106.081 265.942 113.612 252.235L114.359 250.891C121.198 238.714 129.959 225.865 138.769 214.817C147.642 203.689 156.306 194.714 162.901 190.014L163.207 189.797L163.476 189.536C206.797 147.647 226.253 119.569 239.08 101.457C245.548 92.3252 249.949 86.312 254.692 82.1768C259.022 78.4023 263.739 76.1247 270.992 74.998L271.702 74.8926C307.88 69.7592 355.056 57.2888 399.642 48.3799C422.117 43.8889 444.098 40.2561 464.185 38.75Z" stroke="#1B0500" stroke-width="10"/>
</g>
<g filter="url(#filter2_ng_7379_10535)">
<circle cx="467" cy="461.442" r="311" stroke="url(#paint2_linear_7379_10535)" stroke-width="9"/>
</g>
<g filter="url(#filter3_ng_7379_10535)">
<circle cx="467" cy="461.442" r="288" stroke="url(#paint3_linear_7379_10535)" stroke-width="3"/>
</g>
<g filter="url(#filter4_ng_7379_10535)">
<circle cx="469" cy="463.442" r="348" stroke="url(#paint4_linear_7379_10535)" stroke-width="3"/>
</g>
<g opacity="0.5" filter="url(#filter5_ngf_7379_10535)">
<circle cx="471" cy="465.442" r="357.5" stroke="#2C0900" stroke-width="12"/>
</g>
<g filter="url(#filter6_ng_7379_10535)">
<path d="M300.5 615.942C309.5 677.442 438.5 698.942 461 734.942C472.5 712.942 608 701.942 624.5 645.942L582 661.442C636.258 598.295 645.846 557.641 624.5 475.442C620.843 503.527 615.434 519.272 608 536.942C541.001 438.942 611.5 404.442 587 335.442C576.5 406.942 530.5 459.147 518 433.942C490 377.483 513.888 397.442 530.5 335.442C538.5 291.442 476.5 240.442 468.5 188.942C440 245.442 480.5 250.442 486 276.442C490.4 297.242 459.833 335.442 444 351.942C444 336.442 449 317.442 449 317.442C407 339.442 440 440.942 412.5 440.942C393.5 440.942 383 335.442 383 335.442C355.5 409.442 398 482.942 380.5 501.442C344 502.442 339.5 453.442 350 409.442C289.6 481.442 328.501 586.442 357 639.942C337.721 634.272 306.881 619.413 300.5 615.942Z" fill="url(#paint5_linear_7379_10535)"/>
</g>
<g filter="url(#filter7_ng_7379_10535)">
<path d="M396.513 590.942C395.513 654.442 454.013 665.942 456.513 698.442C467.513 661.942 572.513 667.442 557.513 580.442L541.013 593.442C549.513 529.442 482.513 506.442 470.513 434.942C463.513 487.442 397.513 527.442 396.513 590.942Z" fill="url(#paint6_radial_7379_10535)"/>
</g>
<defs>
<filter id="filter0_gn_7379_10535" x="36" y="29" width="877.826" height="892.942" filterUnits="userSpaceOnUse" color-interpolation-filters="sRGB">
<feFlood flood-opacity="0" result="BackgroundImageFix"/>
<feBlend mode="normal" in="SourceGraphic" in2="BackgroundImageFix" result="shape"/>
<feTurbulence type="fractalNoise" baseFrequency="0.25 0.25" numOctaves="3" seed="9798" />
<feDisplacementMap in="shape" scale="8" xChannelSelector="R" yChannelSelector="G" result="displacedImage" width="100%" height="100%" />
<feMerge result="effect1_texture_7379_10535">
<feMergeNode in="displacedImage"/>
</feMerge>
<feTurbulence type="fractalNoise" baseFrequency="0.5 0.5" stitchTiles="stitch" numOctaves="3" result="noise" seed="3625" />
<feColorMatrix in="noise" type="luminanceToAlpha" result="alphaNoise" />
<feComponentTransfer in="alphaNoise" result="coloredNoise1">
<feFuncA type="discrete" tableValues="1 1 1 1 1 1 1 1 1 1 1 1 1 1 1 1 1 1 1 1 1 1 1 1 1 1 1 1 1 1 1 1 1 1 1 1 1 1 1 1 1 1 1 1 1 1 1 1 1 1 1 0 0 0 0 0 0 0 0 0 0 0 0 0 0 0 0 0 0 0 0 0 0 0 0 0 0 0 0 0 0 0 0 0 0 0 0 0 0 0 0 0 0 0 0 0 0 0 0 0 "/>
</feComponentTransfer>
<feComposite operator="in" in2="effect1_texture_7379_10535" in="coloredNoise1" result="noise1Clipped" />
<feFlood flood-color="rgba(0, 0, 0, 0.3)" result="color1Flood" />
<feComposite operator="in" in2="noise1Clipped" in="color1Flood" result="color1" />
<feMerge result="effect2_noise_7379_10535">
<feMergeNode in="effect1_texture_7379_10535" />
<feMergeNode in="color1" />
</feMerge>
</filter>
<filter id="filter1_g_7379_10535" x="20" y="13" width="909.826" height="924.942" filterUnits="userSpaceOnUse" color-interpolation-filters="sRGB">
<feFlood flood-opacity="0" result="BackgroundImageFix"/>
<feBlend mode="normal" in="SourceGraphic" in2="BackgroundImageFix" result="shape"/>
<feTurbulence type="fractalNoise" baseFrequency="0.25 0.25" numOctaves="3" seed="4846" />
<feDisplacementMap in="shape" scale="40" xChannelSelector="R" yChannelSelector="G" result="displacedImage" width="100%" height="100%" />
<feMerge result="effect1_texture_7379_10535">
<feMergeNode in="displacedImage"/>
</feMerge>
</filter>
<filter id="filter2_ng_7379_10535" x="149.5" y="143.942" width="635" height="635" filterUnits="userSpaceOnUse" color-interpolation-filters="sRGB">
<feFlood flood-opacity="0" result="BackgroundImageFix"/>
<feBlend mode="normal" in="SourceGraphic" in2="BackgroundImageFix" result="shape"/>
<feTurbulence type="fractalNoise" baseFrequency="0.5 0.5" stitchTiles="stitch" numOctaves="3" result="noise" seed="788" />
<feColorMatrix in="noise" type="luminanceToAlpha" result="alphaNoise" />
<feComponentTransfer in="alphaNoise" result="coloredNoise1">
<feFuncA type="discrete" tableValues="1 1 1 1 1 1 1 1 1 1 1 1 1 1 1 1 1 1 1 1 1 1 1 1 1 1 1 1 1 1 1 1 1 1 1 1 1 1 1 1 1 1 1 1 1 1 1 1 1 1 1 0 0 0 0 0 0 0 0 0 0 0 0 0 0 0 0 0 0 0 0 0 0 0 0 0 0 0 0 0 0 0 0 0 0 0 0 0 0 0 0 0 0 0 0 0 0 0 0 0 "/>
</feComponentTransfer>
<feComposite operator="in" in2="shape" in="coloredNoise1" result="noise1Clipped" />
<feComponentTransfer in="alphaNoise" result="coloredNoise2">
<feFuncA type="discrete" tableValues="0 0 0 0 0 0 0 0 0 0 0 0 0 0 0 0 0 0 0 0 0 0 0 0 0 0 0 0 0 0 0 0 0 0 0 0 0 0 0 0 0 0 0 0 0 0 0 0 0 1 1 1 1 1 1 1 1 1 1 1 1 1 1 1 1 1 1 1 1 1 1 1 1 1 1 1 1 1 1 1 1 1 1 1 1 1 1 1 1 1 1 1 1 1 1 1 1 1 1 1 "/>
</feComponentTransfer>
<feComposite operator="in" in2="shape" in="coloredNoise2" result="noise2Clipped" />
<feFlood flood-color="rgba(186, 59, 0, 0.5)" result="color1Flood" />
<feComposite operator="in" in2="noise1Clipped" in="color1Flood" result="color1" />
<feFlood flood-color="rgba(100, 21, 2, 0.5)" result="color2Flood" />
<feComposite operator="in" in2="noise2Clipped" in="color2Flood" result="color2" />
<feMerge result="effect1_noise_7379_10535">
<feMergeNode in="shape" />
<feMergeNode in="color1" />
<feMergeNode in="color2" />
</feMerge>
<feTurbulence type="fractalNoise" baseFrequency="0.25 0.25" numOctaves="3" seed="6220" />
<feDisplacementMap in="effect1_noise_7379_10535" scale="4" xChannelSelector="R" yChannelSelector="G" result="displacedImage" width="100%" height="100%" />
<feMerge result="effect2_texture_7379_10535">
<feMergeNode in="displacedImage"/>
</feMerge>
</filter>
<filter id="filter3_ng_7379_10535" x="175.5" y="169.942" width="583" height="583" filterUnits="userSpaceOnUse" color-interpolation-filters="sRGB">
<feFlood flood-opacity="0" result="BackgroundImageFix"/>
<feBlend mode="normal" in="SourceGraphic" in2="BackgroundImageFix" result="shape"/>
<feTurbulence type="fractalNoise" baseFrequency="0.5 0.5" stitchTiles="stitch" numOctaves="3" result="noise" seed="788" />
<feColorMatrix in="noise" type="luminanceToAlpha" result="alphaNoise" />
<feComponentTransfer in="alphaNoise" result="coloredNoise1">
<feFuncA type="discrete" tableValues="1 1 1 1 1 1 1 1 1 1 1 1 1 1 1 1 1 1 1 1 1 1 1 1 1 1 1 1 1 1 1 1 1 1 1 1 1 1 1 1 1 1 1 1 1 1 1 1 1 1 1 0 0 0 0 0 0 0 0 0 0 0 0 0 0 0 0 0 0 0 0 0 0 0 0 0 0 0 0 0 0 0 0 0 0 0 0 0 0 0 0 0 0 0 0 0 0 0 0 0 "/>
</feComponentTransfer>
<feComposite operator="in" in2="shape" in="coloredNoise1" result="noise1Clipped" />
<feComponentTransfer in="alphaNoise" result="coloredNoise2">
<feFuncA type="discrete" tableValues="0 0 0 0 0 0 0 0 0 0 0 0 0 0 0 0 0 0 0 0 0 0 0 0 0 0 0 0 0 0 0 0 0 0 0 0 0 0 0 0 0 0 0 0 0 0 0 0 0 1 1 1 1 1 1 1 1 1 1 1 1 1 1 1 1 1 1 1 1 1 1 1 1 1 1 1 1 1 1 1 1 1 1 1 1 1 1 1 1 1 1 1 1 1 1 1 1 1 1 1 "/>
</feComponentTransfer>
<feComposite operator="in" in2="shape" in="coloredNoise2" result="noise2Clipped" />
<feFlood flood-color="rgba(186, 59, 0, 0.5)" result="color1Flood" />
<feComposite operator="in" in2="noise1Clipped" in="color1Flood" result="color1" />
<feFlood flood-color="rgba(100, 21, 2, 0.5)" result="color2Flood" />
<feComposite operator="in" in2="noise2Clipped" in="color2Flood" result="color2" />
<feMerge result="effect1_noise_7379_10535">
<feMergeNode in="shape" />
<feMergeNode in="color1" />
<feMergeNode in="color2" />
</feMerge>
<feTurbulence type="fractalNoise" baseFrequency="0.25 0.25" numOctaves="3" seed="6220" />
<feDisplacementMap in="effect1_noise_7379_10535" scale="4" xChannelSelector="R" yChannelSelector="G" result="displacedImage" width="100%" height="100%" />
<feMerge result="effect2_texture_7379_10535">
<feMergeNode in="displacedImage"/>
</feMerge>
</filter>
<filter id="filter4_ng_7379_10535" x="117.5" y="111.942" width="703" height="703" filterUnits="userSpaceOnUse" color-interpolation-filters="sRGB">
<feFlood flood-opacity="0" result="BackgroundImageFix"/>
<feBlend mode="normal" in="SourceGraphic" in2="BackgroundImageFix" result="shape"/>
<feTurbulence type="fractalNoise" baseFrequency="0.5 0.5" stitchTiles="stitch" numOctaves="3" result="noise" seed="788" />
<feColorMatrix in="noise" type="luminanceToAlpha" result="alphaNoise" />
<feComponentTransfer in="alphaNoise" result="coloredNoise1">
<feFuncA type="discrete" tableValues="1 1 1 1 1 1 1 1 1 1 1 1 1 1 1 1 1 1 1 1 1 1 1 1 1 1 1 1 1 1 1 1 1 1 1 1 1 1 1 1 1 1 1 1 1 1 1 1 1 1 1 0 0 0 0 0 0 0 0 0 0 0 0 0 0 0 0 0 0 0 0 0 0 0 0 0 0 0 0 0 0 0 0 0 0 0 0 0 0 0 0 0 0 0 0 0 0 0 0 0 "/>
</feComponentTransfer>
<feComposite operator="in" in2="shape" in="coloredNoise1" result="noise1Clipped" />
<feComponentTransfer in="alphaNoise" result="coloredNoise2">
<feFuncA type="discrete" tableValues="0 0 0 0 0 0 0 0 0 0 0 0 0 0 0 0 0 0 0 0 0 0 0 0 0 0 0 0 0 0 0 0 0 0 0 0 0 0 0 0 0 0 0 0 0 0 0 0 0 1 1 1 1 1 1 1 1 1 1 1 1 1 1 1 1 1 1 1 1 1 1 1 1 1 1 1 1 1 1 1 1 1 1 1 1 1 1 1 1 1 1 1 1 1 1 1 1 1 1 1 "/>
</feComponentTransfer>
<feComposite operator="in" in2="shape" in="coloredNoise2" result="noise2Clipped" />
<feFlood flood-color="rgba(186, 59, 0, 0.5)" result="color1Flood" />
<feComposite operator="in" in2="noise1Clipped" in="color1Flood" result="color1" />
<feFlood flood-color="rgba(100, 21, 2, 0.5)" result="color2Flood" />
<feComposite operator="in" in2="noise2Clipped" in="color2Flood" result="color2" />
<feMerge result="effect1_noise_7379_10535">
<feMergeNode in="shape" />
<feMergeNode in="color1" />
<feMergeNode in="color2" />
</feMerge>
<feTurbulence type="fractalNoise" baseFrequency="0.25 0.25" numOctaves="3" seed="6220" />
<feDisplacementMap in="effect1_noise_7379_10535" scale="4" xChannelSelector="R" yChannelSelector="G" result="displacedImage" width="100%" height="100%" />
<feMerge result="effect2_texture_7379_10535">
<feMergeNode in="displacedImage"/>
</feMerge>
</filter>
<filter id="filter5_ngf_7379_10535" x="101.5" y="95.942" width="739" height="739" filterUnits="userSpaceOnUse" color-interpolation-filters="sRGB">
<feFlood flood-opacity="0" result="BackgroundImageFix"/>
<feBlend mode="normal" in="SourceGraphic" in2="BackgroundImageFix" result="shape"/>
<feTurbulence type="fractalNoise" baseFrequency="0.25 0.25" stitchTiles="stitch" numOctaves="3" result="noise" seed="2128" />
<feColorMatrix in="noise" type="luminanceToAlpha" result="alphaNoise" />
<feComponentTransfer in="alphaNoise" result="coloredNoise1">
<feFuncA type="discrete" tableValues="1 1 1 1 1 1 1 1 1 1 1 1 1 1 1 1 1 1 1 1 1 1 1 1 1 1 1 1 1 1 1 1 1 1 1 1 1 1 1 1 1 1 1 1 1 1 1 1 1 1 1 0 0 0 0 0 0 0 0 0 0 0 0 0 0 0 0 0 0 0 0 0 0 0 0 0 0 0 0 0 0 0 0 0 0 0 0 0 0 0 0 0 0 0 0 0 0 0 0 0 "/>
</feComponentTransfer>
<feComposite operator="in" in2="shape" in="coloredNoise1" result="noise1Clipped" />
<feFlood flood-color="rgba(0, 0, 0, 0.5)" result="color1Flood" />
<feComposite operator="in" in2="noise1Clipped" in="color1Flood" result="color1" />
<feMerge result="effect1_noise_7379_10535">
<feMergeNode in="shape" />
<feMergeNode in="color1" />
</feMerge>
<feTurbulence type="fractalNoise" baseFrequency="0.25 0.25" numOctaves="3" seed="6220" />
<feDisplacementMap in="effect1_noise_7379_10535" scale="8" xChannelSelector="R" yChannelSelector="G" result="displacedImage" width="100%" height="100%" />
<feMerge result="effect2_texture_7379_10535">
<feMergeNode in="displacedImage"/>
</feMerge>
<feGaussianBlur stdDeviation="3" result="effect3_foregroundBlur_7379_10535"/>
</filter>
<filter id="filter6_ng_7379_10535" x="296.5" y="184.942" width="342.54" height="554" filterUnits="userSpaceOnUse" color-interpolation-filters="sRGB">
<feFlood flood-opacity="0" result="BackgroundImageFix"/>
<feBlend mode="normal" in="SourceGraphic" in2="BackgroundImageFix" result="shape"/>
<feTurbulence type="fractalNoise" baseFrequency="0.5 0.5" stitchTiles="stitch" numOctaves="3" result="noise" seed="6802" />
<feColorMatrix in="noise" type="luminanceToAlpha" result="alphaNoise" />
<feComponentTransfer in="alphaNoise" result="coloredNoise1">
<feFuncA type="discrete" tableValues="1 1 1 1 1 1 1 1 1 1 1 1 1 1 1 1 1 1 1 1 1 1 1 1 1 1 1 1 1 1 1 1 1 1 1 1 1 1 1 1 1 1 1 1 1 1 1 1 1 1 1 0 0 0 0 0 0 0 0 0 0 0 0 0 0 0 0 0 0 0 0 0 0 0 0 0 0 0 0 0 0 0 0 0 0 0 0 0 0 0 0 0 0 0 0 0 0 0 0 0 "/>
</feComponentTransfer>
<feComposite operator="in" in2="shape" in="coloredNoise1" result="noise1Clipped" />
<feFlood flood-color="rgba(227, 127, 2, 0.5)" result="color1Flood" />
<feComposite operator="in" in2="noise1Clipped" in="color1Flood" result="color1" />
<feMerge result="effect1_noise_7379_10535">
<feMergeNode in="shape" />
<feMergeNode in="color1" />
</feMerge>
<feTurbulence type="fractalNoise" baseFrequency="0.125 0.125" numOctaves="3" seed="6220" />
<feDisplacementMap in="effect1_noise_7379_10535" scale="8" xChannelSelector="R" yChannelSelector="G" result="displacedImage" width="100%" height="100%" />
<feMerge result="effect2_texture_7379_10535">
<feMergeNode in="displacedImage"/>
</feMerge>
</filter>
<filter id="filter7_ng_7379_10535" x="392.5" y="430.942" width="170.476" height="271.5" filterUnits="userSpaceOnUse" color-interpolation-filters="sRGB">
<feFlood flood-opacity="0" result="BackgroundImageFix"/>
<feBlend mode="normal" in="SourceGraphic" in2="BackgroundImageFix" result="shape"/>
<feTurbulence type="fractalNoise" baseFrequency="0.25 0.25" stitchTiles="stitch" numOctaves="3" result="noise" seed="3625" />
<feColorMatrix in="noise" type="luminanceToAlpha" result="alphaNoise" />
<feComponentTransfer in="alphaNoise" result="coloredNoise1">
<feFuncA type="discrete" tableValues="0 0 0 0 0 0 0 0 1 1 1 1 1 1 1 1 1 1 1 1 1 1 1 1 1 1 1 1 1 1 1 1 1 1 1 1 1 1 1 1 1 1 0 0 0 0 0 0 0 0 0 0 0 0 0 0 0 0 0 0 0 0 0 0 0 0 0 0 0 0 0 0 0 0 0 0 0 0 0 0 0 0 0 0 0 0 0 0 0 0 0 0 0 0 0 0 0 0 0 0 "/>
</feComponentTransfer>
<feComposite operator="in" in2="shape" in="coloredNoise1" result="noise1Clipped" />
<feFlood flood-color="rgba(251, 109, 0, 0.15)" result="color1Flood" />
<feComposite operator="in" in2="noise1Clipped" in="color1Flood" result="color1" />
<feMerge result="effect1_noise_7379_10535">
<feMergeNode in="shape" />
<feMergeNode in="color1" />
</feMerge>
<feTurbulence type="fractalNoise" baseFrequency="0.125 0.125" numOctaves="3" seed="6220" />
<feDisplacementMap in="effect1_noise_7379_10535" scale="8" xChannelSelector="R" yChannelSelector="G" result="displacedImage" width="100%" height="100%" />
<feMerge result="effect2_texture_7379_10535">
<feMergeNode in="displacedImage"/>
</feMerge>
</filter>
<radialGradient id="paint0_radial_7379_10535" cx="0" cy="0" r="1" gradientUnits="userSpaceOnUse" gradientTransform="translate(473 466.206) rotate(89.8136) scale(461.108 467.503)">
<stop stop-color="#6F1701"/>
<stop offset="0.754611" stop-color="#5D0F00"/>
<stop offset="0.772099" stop-color="#300B00"/>
<stop offset="0.813943" stop-color="#6F1701"/>
<stop offset="1" stop-color="#200801"/>
</radialGradient>
<linearGradient id="paint1_linear_7379_10535" x1="474.913" y1="33" x2="474.913" y2="926.819" gradientUnits="userSpaceOnUse">
<stop stop-color="#93310E"/>
<stop offset="1" stop-color="#390A01"/>
</linearGradient>
<linearGradient id="paint2_linear_7379_10535" x1="467" y1="145.942" x2="467" y2="776.942" gradientUnits="userSpaceOnUse">
<stop stop-color="#EDAD46"/>
<stop offset="1" stop-color="#C03A00"/>
</linearGradient>
<linearGradient id="paint3_linear_7379_10535" x1="467" y1="171.942" x2="467" y2="750.942" gradientUnits="userSpaceOnUse">
<stop stop-color="#EDAD46"/>
<stop offset="1" stop-color="#C03A00"/>
</linearGradient>
<linearGradient id="paint4_linear_7379_10535" x1="469" y1="113.942" x2="469" y2="812.942" gradientUnits="userSpaceOnUse">
<stop stop-color="#EDAD46"/>
<stop offset="1" stop-color="#C03A00"/>
</linearGradient>
<linearGradient id="paint5_linear_7379_10535" x1="467.77" y1="188.942" x2="467.77" y2="734.942" gradientUnits="userSpaceOnUse">
<stop stop-color="#CF5801"/>
<stop offset="1" stop-color="#A53001"/>
</linearGradient>
<radialGradient id="paint6_radial_7379_10535" cx="0" cy="0" r="1" gradientUnits="userSpaceOnUse" gradientTransform="translate(470.5 587.942) rotate(95.9149) scale(111.594 74.3961)">
<stop stop-color="#EC7700"/>
<stop offset="0.551088" stop-color="#782601"/>
<stop offset="1" stop-color="#580F01"/>
</radialGradient>
</defs>
</svg>
