<svg height="100" viewBox="0 0 1108 200" fill="none" xmlns="http://www.w3.org/2000/svg">
<g clip-path="url(#clip0_7379_10573)">
<path d="M1043.42 -1.06041e-06L1043.42 200L1029.42 200L1029.42 29.6523L936.424 215.652L843.424 29.6523L843.424 200L829.424 200L829.424 0L842.685 -3.13086L936.424 184.348L1030.16 -3.13086L1043.42 -1.06041e-06Z" fill="#4471C3"/>
<path d="M584 -1.06041e-06L584 200L570 200L570 29.6523L477 215.652L384 29.6523L384 200L370 200L370 0L383.261 -3.13086L477 184.348L570.739 -3.13086L584 -1.06041e-06Z" fill="#4471C3"/>
<path d="M1042.59 196.688L1063.85 233.5L1051.72 240.5L1030.36 203.5L1030.26 203.318L1030.16 203.131L982.098 107H890.751L842.592 203.318L842.486 203.5L821.125 240.5L809 233.5L830.253 196.688L936.425 -15.6523L1042.59 196.688ZM897.751 93H975.098L936.424 15.6533L897.751 93Z" fill="#A64343"/>
<path d="M348.595 197.341L369.849 234.152L357.725 241.152L336.362 204.152L336.258 203.971L336.163 203.783L288.098 107.652H196.751L148.592 203.971L148.486 204.152L127.125 241.152L115 234.152L136.253 197.341L242.425 -15L348.595 197.341ZM203.751 93.6523H281.098L242.424 16.3057L203.751 93.6523Z" fill="#A64343"/>
<path d="M943.424 0V200H929.424V0H943.424Z" fill="#67AA66"/>
<path d="M59 0V200H45V0H59Z" fill="#67AA66"/>
<mask id="path-7-outside-1_7379_10573" maskUnits="userSpaceOnUse" x="635" y="87" width="152" height="46" fill="black">
<rect fill="white" x="635" y="87" width="152" height="46"/>
<path d="M637.118 89H667.898V92.18H654.338V131H650.738V92.18H637.118V89ZM675.792 89H679.452V107.96H703.392V89H707.052V131H703.392V111.14H679.452V131H675.792V89ZM732.988 92.18H731.008L716.608 131H712.888L728.488 89H735.448L750.988 131H747.328L732.988 92.18ZM719.788 116.24H744.268V119.42H719.788V116.24ZM754.188 89H784.968V92.18H771.408V131H767.808V92.18H754.188V89Z"/>
</mask>
<path d="M637.118 89H667.898V92.18H654.338V131H650.738V92.18H637.118V89ZM675.792 89H679.452V107.96H703.392V89H707.052V131H703.392V111.14H679.452V131H675.792V89ZM732.988 92.18H731.008L716.608 131H712.888L728.488 89H735.448L750.988 131H747.328L732.988 92.18ZM719.788 116.24H744.268V119.42H719.788V116.24ZM754.188 89H784.968V92.18H771.408V131H767.808V92.18H754.188V89Z" fill="white"/>
<path d="M637.118 89V87H635.118V89H637.118ZM667.898 89H669.898V87H667.898V89ZM667.898 92.18V94.18H669.898V92.18H667.898ZM654.338 92.18V90.18H652.338V92.18H654.338ZM654.338 131V133H656.338V131H654.338ZM650.738 131H648.738V133H650.738V131ZM650.738 92.18H652.738V90.18H650.738V92.18ZM637.118 92.18H635.118V94.18H637.118V92.18ZM637.118 89V91H667.898V89V87H637.118V89ZM667.898 89H665.898V92.18H667.898H669.898V89H667.898ZM667.898 92.18V90.18H654.338V92.18V94.18H667.898V92.18ZM654.338 92.18H652.338V131H654.338H656.338V92.18H654.338ZM654.338 131V129H650.738V131V133H654.338V131ZM650.738 131H652.738V92.18H650.738H648.738V131H650.738ZM650.738 92.18V90.18H637.118V92.18V94.18H650.738V92.18ZM637.118 92.18H639.118V89H637.118H635.118V92.18H637.118ZM675.792 89V87H673.792V89H675.792ZM679.452 89H681.452V87H679.452V89ZM679.452 107.96H677.452V109.96H679.452V107.96ZM703.392 107.96V109.96H705.392V107.96H703.392ZM703.392 89V87H701.392V89H703.392ZM707.052 89H709.052V87H707.052V89ZM707.052 131V133H709.052V131H707.052ZM703.392 131H701.392V133H703.392V131ZM703.392 111.14H705.392V109.14H703.392V111.14ZM679.452 111.14V109.14H677.452V111.14H679.452ZM679.452 131V133H681.452V131H679.452ZM675.792 131H673.792V133H675.792V131ZM675.792 89V91H679.452V89V87H675.792V89ZM679.452 89H677.452V107.96H679.452H681.452V89H679.452ZM679.452 107.96V109.96H703.392V107.96V105.96H679.452V107.96ZM703.392 107.96H705.392V89H703.392H701.392V107.96H703.392ZM703.392 89V91H707.052V89V87H703.392V89ZM707.052 89H705.052V131H707.052H709.052V89H707.052ZM707.052 131V129H703.392V131V133H707.052V131ZM703.392 131H705.392V111.14H703.392H701.392V131H703.392ZM703.392 111.14V109.14H679.452V111.14V113.14H703.392V111.14ZM679.452 111.14H677.452V131H679.452H681.452V111.14H679.452ZM679.452 131V129H675.792V131V133H679.452V131ZM675.792 131H677.792V89H675.792H673.792V131H675.792ZM732.988 92.18L734.864 91.487L734.381 90.18H732.988V92.18ZM731.008 92.18V90.18H729.616L729.133 91.4844L731.008 92.18ZM716.608 131V133H717.999L718.483 131.696L716.608 131ZM712.888 131L711.013 130.304L710.011 133H712.888V131ZM728.488 89V87H727.097L726.613 88.3036L728.488 89ZM735.448 89L737.323 88.306L736.84 87H735.448V89ZM750.988 131V133H753.86L752.863 130.306L750.988 131ZM747.328 131L745.452 131.693L745.934 133H747.328V131ZM719.788 116.24V114.24H717.788V116.24H719.788ZM744.268 116.24H746.268V114.24H744.268V116.24ZM744.268 119.42V121.42H746.268V119.42H744.268ZM719.788 119.42H717.788V121.42H719.788V119.42ZM732.988 92.18V90.18H731.008V92.18V94.18H732.988V92.18ZM731.008 92.18L729.133 91.4844L714.733 130.304L716.608 131L718.483 131.696L732.883 92.8756L731.008 92.18ZM716.608 131V129H712.888V131V133H716.608V131ZM712.888 131L714.763 131.696L730.363 89.6964L728.488 89L726.613 88.3036L711.013 130.304L712.888 131ZM728.488 89V91H735.448V89V87H728.488V89ZM735.448 89L733.572 89.694L749.112 131.694L750.988 131L752.863 130.306L737.323 88.306L735.448 89ZM750.988 131V129H747.328V131V133H750.988V131ZM747.328 131L749.204 130.307L734.864 91.487L732.988 92.18L731.112 92.873L745.452 131.693L747.328 131ZM719.788 116.24V118.24H744.268V116.24V114.24H719.788V116.24ZM744.268 116.24H742.268V119.42H744.268H746.268V116.24H744.268ZM744.268 119.42V117.42H719.788V119.42V121.42H744.268V119.42ZM719.788 119.42H721.788V116.24H719.788H717.788V119.42H719.788ZM754.188 89V87H752.188V89H754.188ZM784.968 89H786.968V87H784.968V89ZM784.968 92.18V94.18H786.968V92.18H784.968ZM771.408 92.18V90.18H769.408V92.18H771.408ZM771.408 131V133H773.408V131H771.408ZM767.808 131H765.808V133H767.808V131ZM767.808 92.18H769.808V90.18H767.808V92.18ZM754.188 92.18H752.188V94.18H754.188V92.18ZM754.188 89V91H784.968V89V87H754.188V89ZM784.968 89H782.968V92.18H784.968H786.968V89H784.968ZM784.968 92.18V90.18H771.408V92.18V94.18H784.968V92.18ZM771.408 92.18H769.408V131H771.408H773.408V92.18H771.408ZM771.408 131V129H767.808V131V133H771.408V131ZM767.808 131H769.808V92.18H767.808H765.808V131H767.808ZM767.808 92.18V90.18H754.188V92.18V94.18H767.808V92.18ZM754.188 92.18H756.188V89H754.188H752.188V92.18H754.188Z" fill="black" fill-opacity="0.5" mask="url(#path-7-outside-1_7379_10573)"/>
</g>
<defs>
<clipPath id="clip0_7379_10573">
<rect width="1108" height="200" fill="white"/>
</clipPath>
</defs>
</svg>
